<?xml version="1.0" encoding="utf-8"?>
<!-- Generator: Adobe Illustrator 16.0.0, SVG Export Plug-In . SVG Version: 6.00 Build 0)  -->
<!DOCTYPE svg PUBLIC "-//W3C//DTD SVG 1.1//EN" "http://www.w3.org/Graphics/SVG/1.1/DTD/svg11.dtd">
<svg version="1.1" xmlns="http://www.w3.org/2000/svg" xmlns:xlink="http://www.w3.org/1999/xlink" x="0px" y="0px" width="30px"
	 height="20px" viewBox="0 0 30 20" enable-background="new 0 0 30 20" xml:space="preserve">
<g id="Layer_2" display="none">
	<g id="Layer_3" display="inline">
		<rect x="-284.5" y="-203.5" stroke="#FFFFFF" stroke-miterlimit="10" width="687" height="477"/>
	</g>
</g>
<g id="Layer_1">
	<path fill="#FFFFFF" d="M2,0h26c1.104,0,2,0.896,2,2s-0.896,2-2,2H2C0.896,4,0,3.104,0,2S0.896,0,2,0z"/>
	<path fill="#FFFFFF" d="M2,8h26c1.104,0,2,0.896,2,2s-0.896,2-2,2H2c-1.104,0-2-0.896-2-2S0.896,8,2,8z"/>
	<path fill="#FFFFFF" d="M2,16h26c1.104,0,2,0.896,2,2s-0.896,2-2,2H2c-1.104,0-2-0.896-2-2S0.896,16,2,16z"/>
</g>
</svg>
