<?xml version="1.0" encoding="utf-8"?>
<!-- Generator: Adobe Illustrator 16.0.0, SVG Export Plug-In . SVG Version: 6.00 Build 0)  -->
<!DOCTYPE svg PUBLIC "-//W3C//DTD SVG 1.1//EN" "http://www.w3.org/Graphics/SVG/1.1/DTD/svg11.dtd">
<svg version="1.1" xmlns="http://www.w3.org/2000/svg" xmlns:xlink="http://www.w3.org/1999/xlink" x="0px" y="0px"
	 width="95.975px" height="100.969px" viewBox="0 0 95.975 100.969" enable-background="new 0 0 95.975 100.969"
	 xml:space="preserve">
<g id="Layer_1">
</g>
<g id="Layer_2">
	<g>
		<path fill="#FFFFFF" d="M88.403,101.391l1.894-2.388l0.316-8.061c0,0,10.417-15.524,2.209-22.391l-6.945-8.359l-6.629-16.42
			c0,0,2.525-11.046-0.632-12.539c0,0-3.326-9.855-4.588-14.979c-0.047-1.221-0.228-2.41-0.534-3.551l-0.245-4.159
			c0,0,1.58-6.122-7.892-7.463c0,0,0.45,0.794,0.857,1.827C63.358,1.073,59.912,0,56.199,0c-9.855,0-17.846,7.556-17.846,16.875
			c0,1.518,0.216,2.987,0.612,4.386c-0.438-0.474-0.442-0.478-0.442-0.478S14.846,29.44,15.161,32.127c0,0-9.786,3.583-13.575,6.27
			c0,0-3.472,4.776,0.316,8.358l8.523,13.136c0,0,9.471,14.628,16.732,16.419c0,0,1.263,7.463,0,7.463s5.683,6.867,5.683,6.867
			S31.013,94.905,28.93,102h59.782L88.403,101.391z M58.096,41.683l-5.998,7.463l0.315,2.388l-2.525,3.583
			c0,0,0.366,0.569,1.944,0.569s-0.46,2.368-0.46,2.368l0.17,0.775l-1.339,6.737l5.367,2.687c0,0,0.947,3.284,0,3.881
			s-6.313-0.597-6.313-0.597s-5.999-9.553-16.102-10.748c0,0-9.786-12.837-16.101-13.732l9.471-9.554c0,0,9.154-7.76,11.682-6.568
			c2.526,1.192,2.526,1.192,2.526,1.192l5.367,2.985c0,0,8.839,1.493,10.732,0.299l2.21-1.194l-2.182-0.481
			c3.193-0.111,6.172-1.013,8.724-2.508c-0.057,3.906,0.011,7.498,0.403,8.365C66.936,41.683,58.096,41.683,58.096,41.683z"/>
	</g>
</g>
</svg>
